<?xml version="1.0" encoding="UTF-8" standalone="no"?>
<svg
   height="24"
   viewBox="0 -960 960 960"
   width="24"
   version="1.1"
   id="svg1"
   sodipodi:docname="icon.svg"
   inkscape:version="1.3.2 (091e20e, 2023-11-25, custom)"
   xmlns:inkscape="http://www.inkscape.org/namespaces/inkscape"
   xmlns:sodipodi="http://sodipodi.sourceforge.net/DTD/sodipodi-0.dtd"
   xmlns="http://www.w3.org/2000/svg"
   xmlns:svg="http://www.w3.org/2000/svg">
  <defs
     id="defs1" />
  <sodipodi:namedview
     id="namedview1"
     pagecolor="#ffffff"
     bordercolor="#000000"
     borderopacity="0.25"
     inkscape:showpageshadow="2"
     inkscape:pageopacity="0.0"
     inkscape:pagecheckerboard="0"
     inkscape:deskcolor="#d1d1d1"
     inkscape:zoom="76.291667"
     inkscape:cx="12.019661"
     inkscape:cy="11.34462"
     inkscape:window-width="3840"
     inkscape:window-height="2066"
     inkscape:window-x="7669"
     inkscape:window-y="-11"
     inkscape:window-maximized="1"
     inkscape:current-layer="svg1" />
  <path
     d="M182-200q-51 0-79-35.5T82-322l42-300q9-60 53.5-99T282-760h396q60 0 104.5 39t53.5 99l42 300q7 51-21 86.5T778-200q-21 0-39-7.5T706-230l-90-90H344l-90 90q-15 15-33 22.5t-39 7.5Zm16-86 114-114h336l114 114q2 2 16 6 11 0 17.5-6.5T800-304l-44-308q-4-29-26-48.5T678-680H282q-30 0-52 19.5T204-612l-44 308q-2 11 4.5 17.5T182-280q2 0 16-6Zm482-154q17 0 28.5-11.5T720-480q0-17-11.5-28.5T680-520q-17 0-28.5 11.5T640-480q0 17 11.5 28.5T680-440Zm-80-120q17 0 28.5-11.5T640-600q0-17-11.5-28.5T600-640q-17 0-28.5 11.5T560-600q0 17 11.5 28.5T600-560ZM310-440h60v-70h70v-60h-70v-70h-60v70h-70v60h70v70Zm170-40Z"
     id="path1"
     style="stroke:#ffffff;stroke-opacity:1;fill:#000000;paint-order:stroke markers fill" />
  <path
     style="fill:#ffffff;stroke:#ffffff;stroke-width:0.0131076;stroke-opacity:1;paint-order:stroke markers fill"
     d="M 4.373012,16.972877 C 4.29286,16.954057 4.1928646,16.898777 4.1310647,16.839114 4.0484347,16.759344 4.0079419,16.672532 4.0015511,16.561442 3.9974311,16.489862 4.1201849,15.603516 4.5600014,12.529108 4.8700522,10.361789 5.1359506,8.5406644 5.1508869,8.4821649 5.2327253,8.1616354 5.3850885,7.8795753 5.6026642,7.6458192 5.8913525,7.3356619 6.2154285,7.1462963 6.6258875,7.0479248 l 0.1179683,-0.028273 4.5224332,-0.00367 4.522433,-0.00367 0.04453,0.1213745 c 0.06548,0.1785022 0.247334,0.5324727 0.362104,0.7048254 0.325959,0.4894968 0.760642,0.8857518 1.265304,1.1534449 0.456301,0.2420389 0.86348,0.3644666 1.358007,0.4083149 0.170626,0.015129 0.17321,0.015836 0.179906,0.049215 0.0037,0.018626 0.231637,1.6087425 0.506446,3.5335915 0.383824,2.688423 0.498295,3.519478 0.493797,3.584927 -0.01608,0.233955 -0.237148,0.417867 -0.503795,0.419122 -0.07114,3.35e-4 -0.298062,-0.06658 -0.392446,-0.115729 -0.03017,-0.01571 -0.626405,-0.602473 -1.472837,-1.449437 L 16.207582,13.998908 H 12.000045 7.792508 l -1.4224681,1.422423 -1.4224682,1.422423 -0.1766805,0.07178 c -0.154585,0.0628 -0.1873353,0.07162 -0.2618797,0.07053 -0.04686,-6.89e-4 -0.1080594,-0.0066 -0.1359995,-0.01318 z m 4.8809476,-4.841801 v -0.871655 h 0.8782084 0.878209 V 10.499181 9.7389405 H 10.132168 9.2539596 V 8.8672856 7.9956308 H 8.5002731 7.7465866 V 8.8672856 9.7389405 H 6.8683779 5.9901693 v 0.7602405 0.76024 h 0.8782086 0.8782087 v 0.871655 0.871655 h 0.7536865 0.7536865 z m 8.0546154,0.832458 c 0.385576,-0.12334 0.642688,-0.436833 0.690599,-0.842034 0.05866,-0.496123 -0.225363,-0.93866 -0.697615,-1.086953 -0.08502,-0.0267 -0.124473,-0.03072 -0.301013,-0.03072 -0.17633,0 -0.216153,0.0041 -0.301474,0.0307 -0.339093,0.105881 -0.590073,0.366929 -0.676203,0.703329 -0.0324,0.126554 -0.0324,0.39775 0,0.524304 0.09306,0.363454 0.37555,0.635999 0.748294,0.721943 0.122679,0.02829 0.420304,0.0169 0.537412,-0.02056 z M 15.329328,9.9573964 c 0.263235,-0.086051 0.493957,-0.2986195 0.600648,-0.5533869 0.08232,-0.1965761 0.09756,-0.5058337 0.03485,-0.7071226 C 15.86463,8.375279 15.625994,8.1367188 15.303109,8.0353812 c -0.06325,-0.019853 -0.140715,-0.031051 -0.249393,-0.036054 -0.330282,-0.015205 -0.58822,0.085302 -0.795169,0.3098452 -0.104604,0.1134962 -0.160376,0.2064454 -0.210925,0.3515218 -0.03532,0.1013756 -0.04071,0.136438 -0.04594,0.2990842 -0.0071,0.2214454 0.01712,0.3411964 0.104651,0.5170103 0.04506,0.09051 0.07892,0.1348672 0.180466,0.2364083 0.101571,0.1015714 0.145872,0.1353842 0.236408,0.1804429 0.179713,0.08944 0.272851,0.1084131 0.504643,0.1027981 0.1684,-0.00408 0.211661,-0.00968 0.301474,-0.039041 z"
     id="path3"
     transform="matrix(40,0,0,40,0,-960)" />
  <g
     id="g1"
     transform="matrix(1.2812791,0,0,1.2812791,-239.13342,227.61188)">
    <circle
       style="fill:#ffffff;stroke-width:42.5893"
       id="path2"
       cx="765.22119"
       cy="-727.47137"
       r="125.04642" />
    <path
       d="m 745.64982,-659.6544 99.21594,-99.21595 -19.70245,-19.70244 -79.51349,79.51347 -40.10857,-40.10859 -19.70246,19.7025 z m 19.70246,75.99519 q -29.20186,0 -54.88542,-11.08263 -25.68356,-11.08263 -44.68236,-30.08143 -18.9988,-18.99879 -30.08143,-44.68236 -11.08263,-25.68356 -11.08263,-54.88544 0,-29.20184 11.08263,-54.88542 11.08263,-25.68352 30.08143,-44.68233 18.9988,-18.9988 44.68236,-30.08146 25.68356,-11.0826 54.88542,-11.0826 29.20186,0 54.88542,11.0826 25.68355,11.08266 44.68235,30.08146 18.9988,18.99881 30.08147,44.68233 11.0826,25.68358 11.0826,54.88542 0,29.20188 -11.0826,54.88544 -11.08267,25.68357 -30.08147,44.68236 -18.9988,18.9988 -44.68235,30.08143 -25.68356,11.08263 -54.88542,11.08263 z m 0,-28.14637 q 47.14517,0 79.86533,-32.72015 32.72016,-32.72015 32.72016,-79.86534 0,-47.14515 -32.72016,-79.86531 -32.72016,-32.72016 -79.86533,-32.72016 -47.14517,0 -79.86532,32.72016 -32.72015,32.72016 -32.72015,79.86531 0,47.14519 32.72015,79.86534 32.72015,32.72015 79.86532,32.72015 z m 0,-112.58549 z"
       id="path1-3"
       style="fill:#55d400;stroke-width:0.35183" />
  </g>
</svg>
